# xmcd
#
# Track frame offsets:
#	150
#	22104
#	39491
#	48587
#	59288
#	77152
#	97017
#	115341
#	126721
#	135037
#	147959
#	163913
#	180013
#	194503
#	211217
#	218943
#	233635
#	237921
#	255389
#	269373
#	290395
#	299921
#
# Disc length: 4177 seconds
#
# Revision: 0
# Processed by: cddbd v1.5.1PL0 Copyright (c) Steve Scherf et al.
# Submitted via: audiograbber 1.83.01
#
DISCID=52104f16
DTITLE=Bong Squad - Bong Voyage
DYEAR=2005
DGENRE=Country Rap
TTITLE0=On Top
TTITLE1=Was soll ich sagen
TTITLE2=Idstein (Interlude I)
TTITLE3=Idstein, Baby
TTITLE4=So hört's sich an ft. Henr!co
TTITLE5=Bong Voyage
TTITLE6=Komm zu uns!
TTITLE7=10:38 - Bong Squad ft. N*Zink, Naveel and DJ Teck
TTITLE8=Wir regeln das (Interlude II)
TTITLE9=Partytime
TTITLE10=Zum Leben benötigt
TTITLE11=Ihr habt nicht erwartet
TTITLE12=Berlin - Idstein ft. Big Derill Mack, Fumanshu, Zett and MKOne
TTITLE13=Dein Portemonnaie
TTITLE14=Bürokrates (Interlude III)
TTITLE15=Wenn du glaubst
TTITLE16=ali 33 straight outta swizz skit
TTITLE17=Keine Rücksicht
TTITLE18=Die Jungs vom Squad
TTITLE19=Fuck uns nicht ab ft. Henr!co, Ma$e, H.i.v.o, We!rdo
TTITLE20=Country Rap (Interlude IV)
TTITLE21=Country Rap Strikes Back
EXTD=
EXTT0=
EXTT1=
EXTT2=
EXTT3=
EXTT4=
EXTT5=
EXTT6=
EXTT7=
EXTT8=
EXTT9=
EXTT10=
EXTT11=
EXTT12=
EXTT13=
EXTT14=
EXTT15=
EXTT16=
EXTT17=
EXTT18=
EXTT19=
EXTT20=
EXTT21=
PLAYORDER=
